<?xml version="1.0" encoding="utf-8"?>
<!-- Generator: Adobe Illustrator 26.0.1, SVG Export Plug-In . SVG Version: 6.00 Build 0)  -->
<svg version="1.1" id="Layer_1" xmlns="http://www.w3.org/2000/svg" xmlns:xlink="http://www.w3.org/1999/xlink" x="0px" y="0px"
	 viewBox="0 0 32 32" style="enable-background:new 0 0 32 32;" xml:space="preserve">
<style type="text/css">
	.st0{fill:#242C40;}
	.st1{fill:#EAB120;}
	.st2{fill:#FFFFFF;}
</style>
<g>
	<path class="st0" d="M2.83,9.68V16v6.32c0,0.4,0.11,0.78,0.3,1.11c0.19,0.33,0.47,0.61,0.81,0.81l5.48,3.16l5.48,3.16
		c0.34,0.2,0.73,0.3,1.11,0.3s0.77-0.1,1.11-0.3l5.48-3.16l5.48-3.16c0.34-0.2,0.62-0.48,0.81-0.81c0.19-0.33,0.3-0.71,0.3-1.11V16
		V9.68c0-0.4-0.11-0.78-0.3-1.11c-0.19-0.33-0.47-0.61-0.81-0.81l-5.48-3.16l-5.48-3.16c-0.34-0.2-0.73-0.3-1.11-0.3
		s-0.77,0.1-1.11,0.3L9.41,4.59L3.94,7.75c-0.34,0.2-0.62,0.48-0.81,0.81S2.83,9.28,2.83,9.68z"/>
	<path class="st1" d="M20.5,20.1c-0.21-0.2-0.31-0.44-0.31-0.74c0-0.29,0.1-0.54,0.31-0.74c0.21-0.2,0.47-0.3,0.79-0.3
		c0.31,0,0.57,0.1,0.77,0.3c0.2,0.2,0.3,0.44,0.3,0.74c0,0.3-0.1,0.54-0.3,0.74c-0.2,0.2-0.46,0.3-0.77,0.3
		C20.97,20.39,20.71,20.29,20.5,20.1z"/>
	<path class="st2" d="M17.97,16.63c0.33,0.41,0.49,0.88,0.49,1.4c0,0.45-0.12,0.85-0.35,1.21c-0.23,0.36-0.57,0.64-1.01,0.85
		c-0.44,0.21-0.95,0.31-1.53,0.31h-3.52v-8.79h3.35c0.6,0,1.11,0.1,1.54,0.3c0.43,0.2,0.75,0.47,0.97,0.82
		c0.22,0.34,0.33,0.72,0.33,1.14c0,0.51-0.14,0.93-0.4,1.26c-0.27,0.34-0.63,0.59-1.09,0.75C17.24,15.96,17.64,16.21,17.97,16.63z
		 M13.51,15.3h1.78c0.47,0,0.84-0.11,1.11-0.32c0.27-0.21,0.4-0.52,0.4-0.93c0-0.4-0.13-0.71-0.4-0.93
		c-0.27-0.22-0.63-0.34-1.11-0.34h-1.78V15.3z M16.6,18.86c0.28-0.24,0.42-0.56,0.42-0.99c0-0.43-0.15-0.77-0.44-1.02
		c-0.3-0.25-0.69-0.38-1.18-0.38h-1.9v2.74h1.95C15.94,19.22,16.33,19.1,16.6,18.86z"/>
</g>
</svg>
