<?xml version="1.0" encoding="UTF-8" standalone="no"?>
<!-- Generator: Adobe Illustrator 26.0.1, SVG Export Plug-In . SVG Version: 6.00 Build 0)  -->

<svg
   version="1.1"
   id="Layer_1"
   x="0px"
   y="0px"
   viewBox="0 0 149.96001 169.23"
   xml:space="preserve"
   sodipodi:docname="hex_logo.svg"
   width="149.96001"
   height="169.23"
   inkscape:version="1.1.1 (c3084ef, 2021-09-22)"
   xmlns:inkscape="http://www.inkscape.org/namespaces/inkscape"
   xmlns:sodipodi="http://sodipodi.sourceforge.net/DTD/sodipodi-0.dtd"
   xmlns="http://www.w3.org/2000/svg"
   xmlns:svg="http://www.w3.org/2000/svg"><defs
   id="defs17" /><sodipodi:namedview
   id="namedview15"
   pagecolor="#ffffff"
   bordercolor="#666666"
   borderopacity="1.0"
   inkscape:pageshadow="2"
   inkscape:pageopacity="0.0"
   inkscape:pagecheckerboard="0"
   showgrid="false"
   inkscape:zoom="1.3674242"
   inkscape:cx="74.958449"
   inkscape:cy="93.240997"
   inkscape:window-width="1296"
   inkscape:window-height="1081"
   inkscape:window-x="1680"
   inkscape:window-y="442"
   inkscape:window-maximized="0"
   inkscape:current-layer="Layer_1" />
<style
   type="text/css"
   id="style2">
	.st0{fill:#242C40;}
	.st1{fill:#EAB120;}
	.st2{fill:#FFFFFF;}
</style>
<g
   id="g12"
   transform="translate(-321.03,-221.385)">
	<path
   class="st0"
   d="m 321.03,270.01 v 71.98 c 0,4.51 2.41,8.69 6.32,10.94 l 62.34,35.99 c 3.91,2.26 8.73,2.26 12.64,0 l 62.34,-35.99 c 3.91,-2.26 6.32,-6.43 6.32,-10.94 v -71.98 c 0,-4.51 -2.41,-8.69 -6.32,-10.94 l -62.34,-35.99 c -3.91,-2.26 -8.73,-2.26 -12.64,0 l -62.34,35.99 c -3.91,2.26 -6.32,6.43 -6.32,10.94 z"
   id="path4" />
	<g
   id="g10">
		<path
   class="st1"
   d="m 421.64,329.32 c -1.18,-1.13 -1.76,-2.53 -1.76,-4.21 0,-1.68 0.59,-3.08 1.76,-4.21 1.17,-1.13 2.67,-1.69 4.5,-1.69 1.77,0 3.24,0.56 4.39,1.69 1.15,1.13 1.73,2.53 1.73,4.21 0,1.68 -0.58,3.08 -1.73,4.21 -1.15,1.13 -2.62,1.69 -4.39,1.69 -1.83,0 -3.33,-0.57 -4.5,-1.69 z"
   id="path6" />
		<path
   class="st2"
   d="m 407.21,309.56 c 1.87,2.35 2.81,5.01 2.81,7.99 0,2.54 -0.66,4.83 -1.98,6.87 -1.32,2.04 -3.23,3.65 -5.72,4.82 -2.5,1.18 -5.4,1.76 -8.71,1.76 H 373.6 v -50.02 h 19.07 c 3.41,0 6.33,0.58 8.78,1.73 2.45,1.15 4.29,2.7 5.54,4.64 1.25,1.94 1.87,4.11 1.87,6.51 0,2.88 -0.77,5.28 -2.3,7.2 -1.54,1.92 -3.6,3.34 -6.19,4.25 2.69,0.49 4.97,1.9 6.84,4.25 z m -25.41,-7.55 h 10.15 c 2.69,0 4.79,-0.61 6.3,-1.83 1.51,-1.22 2.27,-2.99 2.27,-5.29 0,-2.25 -0.76,-4.02 -2.27,-5.29 -1.51,-1.27 -3.61,-1.91 -6.3,-1.91 H 381.8 Z m 17.64,20.29 c 1.58,-1.34 2.37,-3.21 2.37,-5.61 0,-2.45 -0.84,-4.39 -2.52,-5.83 -1.68,-1.44 -3.91,-2.16 -6.69,-2.16 h -10.8 v 15.62 h 11.08 c 2.79,0 4.97,-0.68 6.56,-2.02 z"
   id="path8" />
	</g>
</g>
</svg>
