<?xml version="1.0" encoding="UTF-8" standalone="no"?>
<!-- Generator: Adobe Illustrator 26.0.1, SVG Export Plug-In . SVG Version: 6.00 Build 0)  -->

<svg
   version="1.1"
   id="Layer_1"
   x="0px"
   y="0px"
   viewBox="0 0 612.42999 42.139999"
   xml:space="preserve"
   sodipodi:docname="logo.svg"
   width="612.42999"
   height="42.139999"
   inkscape:version="1.1.1 (c3084ef, 2021-09-22)"
   xmlns:inkscape="http://www.inkscape.org/namespaces/inkscape"
   xmlns:sodipodi="http://sodipodi.sourceforge.net/DTD/sodipodi-0.dtd"
   xmlns="http://www.w3.org/2000/svg"
   xmlns:svg="http://www.w3.org/2000/svg"><defs
   id="defs45" /><sodipodi:namedview
   id="namedview43"
   pagecolor="#ffffff"
   bordercolor="#666666"
   borderopacity="1.0"
   inkscape:pageshadow="2"
   inkscape:pageopacity="0.0"
   inkscape:pagecheckerboard="0"
   showgrid="false"
   inkscape:zoom="1.3674242"
   inkscape:cx="308.97507"
   inkscape:cy="25.961219"
   inkscape:window-width="1296"
   inkscape:window-height="1081"
   inkscape:window-x="2913"
   inkscape:window-y="448"
   inkscape:window-maximized="0"
   inkscape:current-layer="Layer_1" />
<style
   type="text/css"
   id="style2">
	.st0{fill:#283349;}
	.st1{fill:#EBB220;}
</style>
<g
   id="g40"
   transform="translate(-86.95,-288.77)">
	<g
   id="g38">
		<g
   id="g18">
			<path
   class="st0"
   d="m 114.14,312.8 c 1.51,1.9 2.27,4.06 2.27,6.46 0,2.06 -0.53,3.91 -1.6,5.56 -1.07,1.65 -2.61,2.95 -4.63,3.9 -2.02,0.95 -4.37,1.43 -7.04,1.43 H 86.95 v -40.46 h 15.43 c 2.76,0 5.12,0.47 7.1,1.4 1.98,0.93 3.47,2.18 4.48,3.75 1.01,1.57 1.51,3.33 1.51,5.27 0,2.33 -0.62,4.27 -1.86,5.82 -1.24,1.55 -2.91,2.7 -5.01,3.44 2.18,0.39 4.02,1.53 5.54,3.43 z m -20.55,-6.11 h 8.21 c 2.17,0 3.87,-0.49 5.09,-1.48 1.22,-0.99 1.83,-2.42 1.83,-4.28 0,-1.82 -0.61,-3.25 -1.83,-4.28 -1.22,-1.03 -2.92,-1.54 -5.09,-1.54 h -8.21 z m 14.26,16.42 c 1.28,-1.09 1.92,-2.6 1.92,-4.54 0,-1.98 -0.68,-3.55 -2.04,-4.72 -1.36,-1.16 -3.16,-1.75 -5.41,-1.75 h -8.73 v 12.63 h 8.97 c 2.24,0.01 4.01,-0.53 5.29,-1.62 z"
   id="path4" />
			<path
   class="st0"
   d="m 133.12,289.69 v 25.79 c 0,3.07 0.8,5.38 2.42,6.93 1.61,1.55 3.85,2.33 6.72,2.33 2.91,0 5.17,-0.78 6.78,-2.33 1.61,-1.55 2.42,-3.86 2.42,-6.93 v -25.79 h 6.64 v 25.67 c 0,3.3 -0.72,6.09 -2.15,8.38 -1.44,2.29 -3.36,4 -5.76,5.12 -2.41,1.13 -5.06,1.69 -7.98,1.69 -2.91,0 -5.56,-0.56 -7.95,-1.69 -2.39,-1.12 -4.28,-2.83 -5.68,-5.12 -1.4,-2.29 -2.1,-5.08 -2.1,-8.38 v -25.67 z"
   id="path6" />
			<path
   class="st0"
   d="m 170.17,299.18 c 1.84,-3.14 4.35,-5.6 7.51,-7.36 3.16,-1.77 6.63,-2.65 10.39,-2.65 4.31,0 8.14,1.06 11.5,3.17 3.36,2.12 5.79,5.11 7.31,8.99 h -7.98 c -1.05,-2.13 -2.5,-3.73 -4.37,-4.77 -1.86,-1.05 -4.02,-1.57 -6.46,-1.57 -2.68,0 -5.06,0.6 -7.16,1.8 -2.1,1.2 -3.74,2.93 -4.92,5.18 -1.18,2.25 -1.78,4.87 -1.78,7.86 0,2.99 0.59,5.61 1.78,7.86 1.18,2.25 2.82,3.99 4.92,5.21 2.1,1.22 4.48,1.83 7.16,1.83 2.45,0 4.6,-0.52 6.46,-1.57 1.86,-1.05 3.32,-2.64 4.37,-4.77 h 7.98 c -1.51,3.88 -3.95,6.87 -7.31,8.97 -3.36,2.1 -7.19,3.14 -11.5,3.14 -3.8,0 -7.28,-0.88 -10.42,-2.65 -3.14,-1.77 -5.64,-4.22 -7.48,-7.36 -1.84,-3.14 -2.77,-6.69 -2.77,-10.65 0,-3.96 0.93,-7.52 2.77,-10.66 z"
   id="path8" />
			<path
   class="st0"
   d="m 239.83,330.15 -15.66,-18.11 v 18.11 h -6.64 v -40.46 h 6.64 v 18.45 l 15.72,-18.45 h 8.33 l -17.58,20.26 17.87,20.2 z"
   id="path10" />
			<path
   class="st0"
   d="m 263.93,324.8 h 13.68 v 5.36 H 257.29 V 289.7 h 6.64 z"
   id="path12" />
			<path
   class="st0"
   d="m 292.68,295.05 v 11.88 h 13.97 v 5.41 h -13.97 v 12.4 h 15.72 v 5.41 h -22.36 v -40.52 h 22.36 v 5.41 h -15.72 z"
   id="path14" />
			<path
   class="st0"
   d="m 349.45,289.69 -13.39,25.79 v 14.67 h -6.64 v -14.67 l -13.45,-25.79 h 7.39 l 9.37,19.85 9.37,-19.85 z"
   id="path16" />
		</g>
		<path
   class="st1"
   d="m 406.9,330.15 -5.01,-5.01 c -1.94,1.94 -4.06,3.39 -6.35,4.34 -2.29,0.95 -4.85,1.43 -7.68,1.43 -2.87,0 -5.41,-0.5 -7.63,-1.51 -2.21,-1.01 -3.92,-2.45 -5.12,-4.34 -1.2,-1.88 -1.81,-4.07 -1.81,-6.55 0,-2.79 0.8,-5.29 2.39,-7.48 1.59,-2.19 3.96,-3.93 7.1,-5.21 -1.13,-1.36 -1.92,-2.63 -2.39,-3.81 -0.47,-1.18 -0.7,-2.49 -0.7,-3.93 0,-1.78 0.46,-3.38 1.37,-4.77 0.91,-1.4 2.22,-2.5 3.93,-3.32 1.71,-0.81 3.69,-1.22 5.94,-1.22 2.29,0 4.24,0.44 5.85,1.31 1.61,0.87 2.81,2.07 3.61,3.58 0.79,1.51 1.12,3.2 0.96,5.06 h -6.64 c 0.04,-1.44 -0.31,-2.55 -1.05,-3.35 -0.74,-0.8 -1.75,-1.19 -3.03,-1.19 -1.28,0 -2.32,0.38 -3.11,1.14 -0.8,0.76 -1.19,1.68 -1.19,2.77 0,1.05 0.3,2.09 0.9,3.11 0.6,1.03 1.66,2.36 3.17,3.99 l 10.71,10.65 4.13,-6.81 h 7.16 l -5.24,8.97 -1.46,2.39 9.84,9.78 h -8.65 z m -9.37,-9.37 -10.71,-10.77 c -4.58,1.82 -6.87,4.58 -6.87,8.27 0,1.98 0.74,3.64 2.21,4.98 1.47,1.34 3.38,2.01 5.71,2.01 3.64,-0.01 6.87,-1.5 9.66,-4.49 z"
   id="path20" />
		<g
   id="g36">
			<path
   class="st0"
   d="m 446.9,329.13 c -2.17,-0.95 -3.88,-2.3 -5.12,-4.05 -1.24,-1.75 -1.86,-3.78 -1.86,-6.11 h 7.1 c 0.16,1.75 0.84,3.18 2.07,4.31 1.22,1.13 2.94,1.69 5.15,1.69 2.29,0 4.08,-0.55 5.36,-1.66 1.28,-1.11 1.92,-2.53 1.92,-4.28 0,-1.36 -0.4,-2.46 -1.19,-3.32 -0.8,-0.85 -1.79,-1.51 -2.97,-1.98 -1.18,-0.47 -2.82,-0.97 -4.92,-1.51 -2.64,-0.7 -4.78,-1.41 -6.43,-2.12 -1.65,-0.72 -3.06,-1.83 -4.22,-3.35 -1.16,-1.51 -1.75,-3.53 -1.75,-6.05 0,-2.33 0.58,-4.37 1.75,-6.11 1.17,-1.75 2.79,-3.09 4.89,-4.02 2.1,-0.93 4.52,-1.4 7.28,-1.4 3.92,0 7.13,0.98 9.63,2.94 2.5,1.96 3.89,4.65 4.16,8.06 h -7.33 c -0.12,-1.47 -0.82,-2.74 -2.1,-3.78 -1.28,-1.05 -2.97,-1.57 -5.07,-1.57 -1.9,0 -3.46,0.49 -4.66,1.46 -1.2,0.97 -1.8,2.37 -1.8,4.19 0,1.24 0.38,2.26 1.13,3.06 0.76,0.8 1.72,1.43 2.88,1.89 1.17,0.47 2.76,0.97 4.77,1.51 2.68,0.74 4.86,1.48 6.55,2.21 1.69,0.74 3.12,1.87 4.31,3.41 1.18,1.53 1.78,3.58 1.78,6.14 0,2.06 -0.55,4 -1.66,5.82 -1.11,1.82 -2.72,3.29 -4.83,4.4 -2.12,1.11 -4.61,1.66 -7.48,1.66 -2.72,-0.01 -5.17,-0.48 -7.34,-1.44 z"
   id="path22" />
			<path
   class="st0"
   d="m 485.61,289.69 v 40.46 h -6.64 v -40.46 z"
   id="path24" />
			<path
   class="st0"
   d="m 523.39,289.69 v 5.41 h -10.77 v 35.05 h -6.64 V 295.1 h -10.83 v -5.41 z"
   id="path26" />
			<path
   class="st0"
   d="m 539.4,324.39 h 18.8 v 5.76 h -26.66 v -5.18 l 18.75,-29.52 h -18.75 v -5.76 h 26.66 v 5.18 z"
   id="path28" />
			<path
   class="st0"
   d="m 611.01,289.69 v 40.46 h -6.64 v -27.71 l -12.34,27.71 h -4.6 l -12.4,-27.71 v 27.71 h -6.64 v -40.46 h 7.16 l 14.2,31.73 14.15,-31.73 z"
   id="path30" />
			<path
   class="st0"
   d="M 647.04,321.89 H 630.1 l -2.91,8.27 h -6.93 l 14.5,-40.52 h 7.68 l 14.5,40.52 h -6.99 z m -1.86,-5.42 -6.58,-18.8 -6.64,18.8 z"
   id="path32" />
			<path
   class="st0"
   d="m 699.38,330.15 h -6.64 l -19.97,-30.21 v 30.21 h -6.64 v -40.52 h 6.64 l 19.97,30.16 v -30.16 h 6.64 z"
   id="path34" />
		</g>
	</g>
</g>
</svg>
